<?xml version="1.0" standalone="no"?>
<!DOCTYPE svg PUBLIC "-//W3C//DTD SVG 1.1//EN" "http://www.w3.org/Graphics/SVG/1.1/DTD/svg11.dtd" >
<svg xmlns="http://www.w3.org/2000/svg">
<metadata>Generated by IcoMoon</metadata>
<defs>
<font id="icons" horiz-adv-x="1024">
<font-face units-per-em="1024" ascent="960" descent="-64" />
<missing-glyph horiz-adv-x="1024" />
<glyph unicode="&#x20;" horiz-adv-x="512" d="" />
<glyph unicode="&#xe900;" glyph-name="magnifying-glass" d="M832 544c0-91.8-29.8-176.6-80-245.4l253.2-253.4c25-25 25-65.6 0-90.6s-65.6-25-90.6 0l-253.2 253.4c-68.8-50.4-153.6-80-245.4-80-229.8 0-416 186.2-416 416s186.2 416 416 416 416-186.2 416-416zM416 256c159 0 288 129 288 288s-129 288-288 288-288-129-288-288 129-288 288-288z" />
<glyph unicode="&#xe901;" glyph-name="arrow-up" horiz-adv-x="768" d="M13.25 529l336 352c9.15 9.6 21.55 14.96 34.75 14.96s25.68-5.376 34.76-14.876l336-352c18.25-19.188 17.562-49.56-1.625-67.88-19-18.312-49.5-17.624-67.88 1.625l-253.255 265.371v-680.2c0-26.5-21.5-46.2-46.2-46.2s-49.8 19.6-49.8 46.2v680.2l-253.2-265.4c-18.36-19.2-48.86-19.8-67.924-1.6-19.188 18.4-19.876 48.8-1.626 67.8z" />
<glyph unicode="&#xe902;" glyph-name="arrow-up-right" horiz-adv-x="640" d="M640 720v-480c0-26.5-21.5-48-48-48s-48 21.5-48 48v364.2l-462-462c-9.44-9.6-21.72-14.2-34-14.2s-24.56 4.688-33.94 14.062c-18.75 18.75-18.75 49.12 0 67.88l462.14 462.058h-364.2c-26.5 0-48 21.4-48 48s21.5 48 48 48h480c26.6 0 48-21.6 48-48z" />
<glyph unicode="&#xe903;" glyph-name="clock" d="M928 448c0-229.75-186.25-416-416-416s-416 186.25-416 416v0c0 229.75 186.25 416 416 416s416-186.25 416-416v0zM0 448c0-282.77 229.23-512 512-512s512 229.23 512 512v0c0 282.77-229.23 512-512 512s-512-229.23-512-512v0zM464 720v-272c0-16 8-31 21.4-40l192-128c22-14.8 51.8-8.8 66.6 13.4s8.8 51.8-13.4 66.6l-170.6 113.6v246.4c0 26.6-21.4 48-48 48s-48-21.4-48-48z" />
<glyph unicode="&#xe904;" glyph-name="eye" horiz-adv-x="1152" d="M320 448c0 141.4 114.6 256 256 256s256-114.6 256-256c0-141.4-114.6-256-256-256s-256 114.6-256 256zM576 288c88.4 0 160 71.6 160 160s-71.6 160-160 160c-1.4 0-2.6 0-5.8 0 4.4-10.2 5.8-21 5.8-32 0-70.6-57.4-128-128-128-11 0-21.8 1.4-32 5.8 0-3.2 0-4.4 0-4 0-90.2 71.6-161.8 160-161.8v0zM190.84 734.8c94.16 87.52 223.56 161.2 385.16 161.2s291-73.68 385.2-161.2c93.6-86.8 156.2-189 185.8-262.2 6.6-15.8 6.6-33.4 0-49.2-29.6-71.4-92.2-173.6-185.8-262.2-94.2-87.6-223.6-161.2-385.2-161.2s-291 73.6-385.16 161.2c-93.6 88.6-156.16 190.8-185.918 262.2-6.563 15.8-6.563 33.4 0 49.2 29.758 73.2 92.318 175.4 185.918 262.2v0zM576 800c-130.4 0-237.6-59.2-319.8-135.4-77-71.6-130.16-154.8-157.32-216.6 27.16-60 80.32-145 157.32-216.6 82.2-76.2 189.4-135.4 319.8-135.4s237.6 59.2 319.8 135.4c77 71.6 128.4 156.6 157.4 216.6-29 61.8-80.4 145-157.4 216.6-82.2 76.2-189.4 135.4-319.8 135.4v0z" />
<glyph unicode="&#xe905;" glyph-name="circle-question-solid" d="M512-64c282.8 0 512 229.2 512 512s-229.2 512-512 512-512-229.2-512-512 229.2-512 512-512zM339.6 629.4c15.8 44.6 58.2 74.6 105.6 74.6h116.6c69.8 0 126.2-56.6 126.2-126.2 0-45.2-24.2-87-63.4-109.6l-64.6-37c-0.4-26-21.8-47.2-48-47.2-26.6 0-48 21.4-48 48v27c0 17.2 9.2 33 24.2 41.6l88.6 50.8c9.4 5.4 15.2 15.4 15.2 26.2 0 16.8-13.6 30.2-30.2 30.2h-116.6c-6.8 0-12.8-4.2-15-10.6l-0.8-2.4c-8.8-25-36.4-38-61.2-29.2s-38 36.4-29.2 61.2l0.8 2.4zM576 256c0-35.4-28.6-64-64-64s-64 28.6-64 64 28.6 64 64 64 64-28.6 64-64z" />
<glyph unicode="&#xe906;" glyph-name="magnifying-glass1" d="M1008.2 18l-268 268c58 71 90 160.4 90 258 0 229.8-186.26 416-416 416s-414.2-186.26-414.2-416 186.24-416 414.2-416c97.58 0 187.1 33.82 258 90.080l268-268c11.2-9.48 23.6-14.080 35.8-14.080s24.56 4.688 33.94 14.062c18.66 18.738 18.66 49.138-1.74 67.938zM96 544c0 176.44 143.56 320 320 320s320-143.56 320-320-143.56-320-320-320-320 143.6-320 320z" />
<glyph unicode="&#xe907;" glyph-name="message" d="M894.2 960h-768c-70.5 0-128-57.5-128-126.2v-574.2c0-70.5 57.5-126.2 128-126.2h192v-167.96c0-19.672 22.040-31.1 38.24-19.4l249.8 187.36h288c70.5 0 128 57.5 128 126.2v574.2c-0.040 68.7-55.84 126.2-128.040 126.2zM928 256c0-17.5-14.5-32-32-32h-320l-160-120v120h-288c-17.5 0-32 14.5-32 32v576c0 17.5 14.5 32 32 32h768c17.5 0 32-14.5 32-32v-576z" />
<glyph unicode="&#xe908;" glyph-name="ellipsis-vertical" horiz-adv-x="256" d="M128 224c53.020 0 96-43 96-96s-42.98-96-96-96c-53.020 0-96 43-96 96s42.98 96 96 96zM128 544c53.020 0 96-43 96-96s-42.98-96-96-96c-53.020 0-96 43-96 96s42.98 96 96 96zM128 672c-53.020 0-96 43-96 96 0 53.020 42.98 96 96 96s96-42.98 96-96c0-53-42.98-96-96-96z" />
<glyph unicode="&#xe909;" glyph-name="chevrons-up" horiz-adv-x="896" d="M113.18 429.4l334.82 320.2 334.8-320.2c9.4-9 21.2-13.4 33.2-13.4 12.624 0 25.24 4.938 34.68 14.812 18.312 19.188 17.624 49.56-1.5 67.88l-368 352c-18.624 17.75-47.76 17.75-66.38 0l-368-352c-19.12-18.292-19.82-48.692-1.5-67.892s46.9-19.8 67.88-1.4zM481.2 466.6c-18.624 17.75-47.76 17.75-66.38 0l-368-352c-19.124-18.312-19.812-48.68-1.5-67.88s48.7-19.75 67.88-1.5l334.8 320.38 334.8-320.2c9.4-9 21.2-13.4 33.2-13.4 12.624 0 25.24 4.938 34.68 14.812 18.312 19.188 17.624 49.56-1.5 67.88l-367.98 351.908z" />
<glyph unicode="&#xe90a;" glyph-name="trophy-star" horiz-adv-x="1152" d="M352 960h448c53 0 96.2-43.6 94.2-96.4-0.4-10.6-0.8-21.2-1.4-31.6h211.2c26.6 0 48-21.4 48-48 0-183.4-63.8-311.4-150-399-85-86.4-189.2-130.4-266.8-153-47.2-13.6-79.2-53-79.2-92.2 0-42 34-75.8 75.8-75.8h36.2c35.4 0 64-28.6 64-64s-28.6-64-64-64h-384c-35.4 0-64 28.6-64 64s28.6 64 64 64h36.2c42 0 75.8 34 75.8 75.8 0 39.2-32 78.6-79.2 92.2-77.8 22.6-181.8 66.6-266.8 153-86.2 87.6-150 215.6-150 399 0 26.6 21.4 48 48 48h211.2c-0.6 10.4-1 20.8-1.4 31.6-2 52.8 41.2 96.4 94.2 96.4zM266.4 736h-168.6c9.8-132 59.6-221.6 120.6-283.6 47.4-48 102.8-80.8 155.2-103.2-46.8 80.6-88.4 202.4-107 386.8zM778.4 349.2c52.4 22.4 107.8 55.2 155.2 103.2 61 62 110.8 151.6 120.6 283.6h-168.8c-18.8-184.4-60.2-306.2-107-386.8zM590.4 787c-5.8 11.8-22.8 11.8-28.6 0l-38.4-77.8c-2.4-4.8-6.8-8-12-8.8l-86-12.4c-13.2-2-18.4-18-8.8-27.2l62-60.4c3.8-3.6 5.4-9 4.6-14.2l-14.6-85.4c-2.2-13 11.4-23 23.2-16.8l76.8 40c4.6 2.4 10.2 2.4 14.8 0l76.8-40.4c11.8-6.2 25.4 3.8 23.2 16.8l-14.6 85.6c-0.8 5.2 0.8 10.4 4.6 14.2l62 60.4c9.4 9.2 4.2 25.4-8.8 27.2l-85.8 12.4c-5.2 0.8-9.8 4-12 8.8l-38.4 78z" />
<glyph unicode="&#xe90b;" glyph-name="inbox" d="M242 896c-58.8 0-110-40-124.2-97l-114-455.8c-2.6-10.2-3.8-20.6-3.8-31v-184.2c0-70.6 57.4-128 128-128h768c70.6 0 128 57.4 128 128v184.2c0 10.4-1.2 20.8-3.8 31l-114 455.8c-14.2 57-65.4 97-124.2 97h-540zM242 768h540l96-384h-102.4c-24.2 0-46.4-13.6-57.2-35.4l-28.6-57.2c-10.8-21.6-33-35.4-57.2-35.4h-241c-24.2 0-46.4 13.6-57.2 35.4l-28.6 57.2c-10.8 21.6-33 35.4-57.2 35.4h-102.6l96 384z" />
<glyph unicode="&#xe90c;" glyph-name="arrow-turn-down-right" d="M686 95.8c-18.6 17-18.6 47.4 0 66.2l174.2 174h-812.2c-26.5 0-48 21.6-48 48v464c0 26.5 21.5 48 48 48s48-21.5 48-48v-416h764.2l-174.2 175.8c-18.6 17-18.6 47.4 0 66.2 18.8 18.6 49.2 18.6 66.2 0l256-256c11.2-9.4 15.8-21.6 15.8-32.2 0-14.2-4.6-26.4-15.8-34l-256-256c-17-20.4-47.4-20.4-66.2 0v0z" />
<glyph unicode="&#xe90d;" glyph-name="award-simple" horiz-adv-x="768" d="M768 576c0 43-20.54 74.18-32.8 92.82-0.309 0.473-0.621 0.941-0.934 1.406 0.055 0.816 0.109 1.629 0.152 2.446 1.227 22.020 3.32 58.84-17.82 95.38-21.26 36.76-54.44 53.46-74.24 63.42-0.629 0.316-1.262 0.625-1.891 0.937-0.312 0.633-0.625 1.266-0.941 1.898-9.942 19.796-26.62 52.96-63.4 74.26-21.6 12.5-46.14 18.542-75.080 18.542-6.64 0-13.458-0.328-20.28-0.707-0.824-0.043-1.652-0.094-2.48-0.141-0.473 0.316-0.945 0.633-1.422 0.945-18.665 12.252-49.865 32.792-92.865 32.792s-74.2-20.54-92.8-32.8c-0.4-0.32-1-0.62-1.4-0.94-0.8 0.060-1.6 0.1-2.4 0.16-7 0.36-13.8 0.7-20.4 0.7-28.94 0-53.44-6.032-75.040-18.532-36.78-21.28-53.48-54.44-63.42-74.24-0.316-0.629-0.625-1.258-0.934-1.887-0.629-0.309-1.262-0.617-1.891-0.934-19.796-9.948-52.976-26.628-74.256-63.428-21.16-36.5-19.080-73.3-17.84-95.3 0.043-0.816 0.098-1.637 0.152-2.45-0.332-0.55-0.632-0.95-0.952-1.55-12.28-18.6-32.82-49.8-32.82-92.8s20.54-74.18 32.82-92.82c0.3-0.38 0.62-0.98 0.92-1.38-0.040-0.8-0.1-1.6-0.14-2.4-1.24-22-3.34-59 17.82-95.4 21.3-36.78 54.46-53.48 74.24-63.42 0.633-0.316 1.266-0.629 1.898-0.937 0.309-0.637 0.621-1.27 0.937-1.902 9.942-19.792 26.64-52.96 63.4-74.24 1.621-0.937 3.516-1.189 5.174-2.056l-55.58-266.8c-5.454-26.18 21.72-47.1 45.64-35.14l196.87 98.296 196.88-98.44c23.92-11.96 51.080 8.96 45.64 35.14l-55.58 266.8c1.629 0.855 3.512 1.107 5.11 2.032 36.8 21.28 53.48 54.46 63.44 74.26 0.312 0.625 0.621 1.25 0.93 1.875 0.625 0.309 1.254 0.617 1.883 0.934 19.796 9.946 52.98 26.64 74.26 63.42 21.16 36.54 19.062 73.36 17.84 95.38-0.047 0.82-0.102 1.637-0.156 2.458 0.32 0.473 0.637 0.949 0.953 1.426 12.201 18.716 32.801 49.916 32.801 92.916zM638.2 507.4c-6.308-23.62 5.422-54.74-6.55-75.42-12.14-20.98-45.080-26.28-62.1-43.32-17.016-17.020-22.34-49.94-43.32-62.080-7.832-4.532-17.16-5.664-27.020-5.664-9.832 0-20.18 1.129-30.080 1.129-6.376 0-12.566-0.469-18.312-2.004-21.018-6.041-42.018-32.041-66.818-32.041-24.76 0-45.8 25.9-68.64 32.020-5.76 1.58-11.96 3.78-18.36 3.78-9.89 0-20.22-1.121-30.040-1.121-9.864 0-19.204 1.133-27.040 5.668-20.92 10.453-26.32 43.253-43.3 60.253-17.020 17-49.94 22.4-62.080 43.4-11.96 20.6-0.22 51.8-6.52 75.4-6.1 22.8-32.020 43.8-32.020 68.6 0 24.76 25.92 45.8 32.020 68.64 6.308 23.62-5.422 54.74 6.554 75.42 12.146 20.94 45.066 26.34 62.106 43.32 17.020 17.016 22.34 49.94 43.32 62.080 7.832 4.532 17.16 5.664 27.020 5.664 9.832 0 20.18-1.129 30.080-1.129 6.376 0 12.566 0.469 18.312 2.004 22.788 6.101 43.788 32.001 68.588 32.001 24.78 0 45.8-25.9 68.64-32.020 5.754-1.539 11.954-2.008 18.34-2.008 9.89 0 20.22 1.121 30.040 1.121 9.864 0 19.208-1.133 27.040-5.668 20.98-12.136 26.28-45.080 43.32-62.1 17.016-17.024 49.94-22.34 62.080-43.32 11.964-20.68 0.23-51.8 6.54-75.42 6.2-22.785 32-43.785 32-68.585s-26-45.8-33.8-68.6zM384 704c-70.6 0-128-57.2-128-128 0-70.66 57.3-128 128-128s128 57.34 128 128c0 70.8-57.4 128-128 128z" />
<glyph unicode="&#xe90e;" glyph-name="circle-question" d="M512 960c-282.8 0-512-229.2-512-512s229.2-512 512-512 512 229.2 512 512-229.2 512-512 512zM512 32c-229.4 0-416 186.62-416 416s186.6 416 416 416 416-186.62 416-416-186.6-416-416-416zM512 288c-36 0-64-28-64-64s26.2-64 64-64c34.2 0 64 28 64 64s-29.8 64-64 64zM578.2 704h-102.2c-78 0-140-62-140-140 0-26 22-48 48-48s48 22 48 48c0 24 18.2 44 42.2 44h102.2c25.8 0 47.6-20 47.6-44 0-16-8-28.2-22-36.2l-114-69.8c-16-10-24-26-24-42v-32c0-26 22-48 48-48s48 22 48 48v4l90.2 56c42 26 68 72 68 120 1.8 78-60.2 140-140 140z" />
<glyph unicode="&#xe90f;" glyph-name="comment" d="M512 896c-282.8 0-511.946-186.2-511.946-416 0-95.26 39.82-182.5 105.82-252.4-29.76-79-91.74-145.76-92.74-146.5-13.25-14-16.75-34.5-9.25-52 7.752-17.5 24.876-29.1 44.116-29.1 123 0 218.2 51.5 278.2 92.5 56-18.1 120.4-28.5 185.8-28.5 282.8 0 510.2 186.26 510.2 416s-227.4 416-510.2 416zM512.2 160c-53.5 0-106.24 8.25-156.76 24.24l-45.5 14.25-39-27.5c-28.5-20.24-67.76-42.76-115-58 14.75 24.24 28.74 51.5 39.76 80.5l21.24 56-41.24 43.74c-36.060 38.57-79.56 102.37-79.56 186.77 0 176.5 186.5 320 416 320s416-143.5 416-320-186.54-320-415.94-320z" />
<glyph unicode="&#xe910;" glyph-name="heart" d="M488 792l22.2-24 24 23.96c67 65.3 159.8 95.020 251 79.84 137.8-22.96 238.8-142.2 238.8-282v-11.6c0-83-34.4-162.4-95.2-219l-361.4-337.4c-15-14-34.8-21.8-55.4-21.8s-40.4 7.8-55.4 21.8l-361.42 337.4c-60.72 56.6-95.18 136-95.18 219v11.6c0 139.8 101.040 259.040 238.8 282 89.4 15.18 184-14.54 249.2-79.8-1.8 0 0-0.020 0 0v0zM510.2 632.2l-90 93.6c-43.4 41.64-105 61.4-165.6 51.32-91.5-15.26-158.6-94.52-158.6-187.32v-11.6c0-56.4 23.42-110.4 64.68-148.8l351.32-328 351.4 328c41.2 38.4 64.6 92.4 64.6 148.8v11.6c0 92.8-67.2 172.060-158.6 187.32-60.6 10.080-122.2-9.68-165.6-51.32l-93.6-93.6z" />
<glyph unicode="&#xe911;" glyph-name="house" horiz-adv-x="1152" d="M1135 500.6c20.2-17.2 22.8-47.4 5.6-67.6s-47.4-22.8-67.6-5.6l-49 41.6v-373c0-88.4-71.6-160-160-160h-576c-88.36 0-160 71.6-160 160v373l-48.94-41.6c-20.22-17.2-50.5-14.6-67.66 5.6-17.15 20.2-14.668 50.4 5.546 67.6l528.054 448c17.8 15.2 44.2 15.2 62 0l528-448zM288 32h96v304c0 44.2 35.8 80 80 80h224c44.2 0 80-35.8 80-80v-304h96c35.4 0 64 28.6 64 64v454.4l-352 298.66-352-298.66v-454.4c0-35.4 28.6-64 64-64v0zM480 32h192v288h-192v-288z" />
<glyph unicode="&#xe912;" glyph-name="tags" d="M945.6 623.2c104.6-106 104.6-276.4 0-382.4l-224-226.6c-18.6-18.8-49-19-67.8-0.4-19 18.6-19 49-0.4 68l223.8 226.4c67.8 68.6 67.8 179 0 247.6l-255.4 258.46c-18.8 18.86-18.6 49.24 0.4 67.88 18.8 18.64 49.2 18.46 66-0.4l257.4-258.54zM288 673.8c0-37.2-28.6-64-64-64-35.34 0-64 26.8-64 64 0 33.6 28.66 64 64 64 35.4 0 64-30.4 64-64zM821.4 522.6c50-50 50-131.2 0-181.2l-266.8-266.8c-50-50-131.2-50-181.2 0l-335.9 336c-24.014 24-37.5 56.4-37.5 90.4v299c0 53.020 42.98 96 96 96h299c34 0 66.4-13.48 90.4-37.5l336-335.9zM96 801.8v-300.8c0-8.4 3.38-16.6 9.38-22.6l336.020-336c12.4-12.6 32.8-12.6 45.2 0l267 267c12.6 12.4 12.6 32.8 0 45.2l-336 336.020c-6 6-14.2 11.18-22.6 11.18h-299z" />
<glyph unicode="&#xe913;" glyph-name="list" d="M176 864c26.6 0 48-21.5 48-48v-96c0-26.6-21.4-48-48-48h-96c-26.5 0-48 21.4-48 48v96c0 26.5 21.5 48 48 48h96zM976 816c26.6 0 48-21.5 48-48 0-26.6-21.4-48-48-48h-608c-26.6 0-48 21.4-48 48 0 26.5 21.4 48 48 48h608zM976 496c26.6 0 48-21.4 48-48s-21.4-48-48-48h-608c-26.6 0-48 21.4-48 48s21.4 48 48 48h608zM976 176c26.6 0 48-21.4 48-48s-21.4-48-48-48h-608c-26.6 0-48 21.4-48 48s21.4 48 48 48h608zM32 496c0 26.6 21.5 48 48 48h96c26.6 0 48-21.4 48-48v-96c0-26.6-21.4-48-48-48h-96c-26.5 0-48 21.4-48 48v96zM176 224c26.6 0 48-21.4 48-48v-96c0-26.6-21.4-48-48-48h-96c-26.5 0-48 21.4-48 48v96c0 26.6 21.5 48 48 48h96z" />
<glyph unicode="&#xe914;" glyph-name="triangle-exclamation" d="M512 896c28.4 0 54.6-15 69-39.6l432-736c14.6-24.8 14.6-55.4 0.4-80.2s-40.8-40.2-69.4-40.2h-864c-28.6 0-55.2 15.4-69.4 40.2s-14 55.6 0.4 80.2l432 736c14.4 24.6 40.6 39.6 69 39.6zM512 640c-26.6 0-48-21.4-48-48v-224c0-26.6 21.4-48 48-48s48 21.4 48 48v224c0 26.6-21.4 48-48 48zM576 192c0 35.4-28.6 64-64 64s-64-28.6-64-64 28.6-64 64-64 64 28.6 64 64z" />
<glyph unicode="&#xe915;" glyph-name="down" horiz-adv-x="768" d="M224 832v-352h-160c-35.38 0-64-28.72-64-62.2 0-18.4 6.504-34.8 18.75-47l320-352c12.45-12.6 28.85-18.8 45.25-18.8s32.76 6.25 45.24 18.75l320 352c12.16 12.25 18.76 28.65 18.76 47.050 0 33.4-28.6 62.2-64 62.2h-160v352c0 35.34-28.66 64-64 64h-192c-35.4 0-64-28.66-64-64zM480 832v-416l221.8-2.2-317.8-349.6-320 351.8h224v416h192z" />
<glyph unicode="&#xe916;" glyph-name="up" horiz-adv-x="768" d="M544 64v352h160c35.38 0 64 28.72 64 62.2 0 16.652-6.504 33.020-18.75 45.26l-320 352c-12.45 14.28-28.85 20.54-45.25 20.54s-32.8-6.26-45.2-18.76l-320-352c-12.296-12.24-18.8-28.64-18.8-45.24 0-35.2 28.6-64 64-64h160v-352c0-35.34 28.66-64 64-64h192c35.4 0 64 28.6 64 64zM288 64v416l-221.8 2.2 317.8 349.68 318.2-351.88h-222.2v-416h-192z" />
<glyph unicode="&#xe917;" glyph-name="square-plus" horiz-adv-x="896" d="M400 272v128h-128c-26.6 0-48 21.4-48 48s21.4 48 48 48h128v128c0 26.6 21.4 48 48 48s48-21.4 48-48v-128h128c26.6 0 48-21.4 48-48s-21.4-48-48-48h-128v-128c0-26.6-21.4-48-48-48s-48 21.4-48 48zM0 768c0 70.7 57.3 128 128 128h640c70.6 0 128-57.3 128-128v-640c0-70.6-57.4-128-128-128h-640c-70.7 0-128 57.4-128 128v640zM96 768v-640c0-17.6 14.32-32 32-32h640c17.6 0 32 14.4 32 32v640c0 17.68-14.4 32-32 32h-640c-17.68 0-32-14.32-32-32z" />
<glyph unicode="&#xe918;" glyph-name="caret-down" horiz-adv-x="640" d="M274.8 210.8c25-25 65.6-25 90.6 0l256 256c18.4 18.4 23.8 45.8 13.8 69.8s-33.2 39.6-59.2 39.6l-512-0.2c-25.8 0-49.2-15.6-59.2-39.6s-4.4-51.4 13.8-69.8l256-256z" />
<glyph unicode="&#xe919;" glyph-name="circle-exclamation" d="M512-64c282.8 0 512 229.2 512 512s-229.2 512-512 512-512-229.2-512-512 229.2-512 512-512zM512 704c26.6 0 48-21.4 48-48v-224c0-26.6-21.4-48-48-48s-48 21.4-48 48v224c0 26.6 21.4 48 48 48zM576 256c0-35.4-28.6-64-64-64s-64 28.6-64 64 28.6 64 64 64 64-28.6 64-64z" />
<glyph unicode="&#xe91a;" glyph-name="paper-plane" d="M1003.2 951.628c-15.188 10.312-34.82 11.188-50.88 2.126l-928.080-527.954c-15.872-9.2-25.247-26.4-24.154-44.6 1.094-18.25 12.468-34.32 29.32-41.38l306.6-128.76v-227c0-17.562 9.594-33.68 25-42.12 7.194-3.94 14.994-5.94 21.194-5.94 9.032 0 18.076 2.562 25.98 7.624l222.4 142.92 197.12-82.8c5.968-2.5 12.282-3.75 18.594-3.75 8.156 0 16.282 2.062 23.56 6.188 12.906 7.25 21.76 20.12 23.9 34.76l128 864c4.446 18.178-3.554 36.312-18.554 46.686zM738.6 721.6l-374.2-417.8-207.94 86.8 582.14 331zM430.2 72v98.72l92.9-39.020-92.9-59.7zM809.6 116.2l-353.2 148.38 449.2 499-96-647.38z" />
</font>
</defs>
</svg>
